<svg id="e1tOjKadk0n1" xmlns="http://www.w3.org/2000/svg" xmlns:xlink="http://www.w3.org/1999/xlink" viewBox="0 0 661 496" shape-rendering="geometricPrecision" text-rendering="geometricPrecision"><path id="e1tOjKadk0n2" d="M452.342,209.736L452.342,154.93L453.186,154.93L453.186,210.58L355.368,210.58L355.368,209.736L452.342,209.736Z" clip-rule="evenodd" fill="rgb(3,127,255)" fill-opacity="0.43" fill-rule="evenodd" stroke="none" stroke-width="1"/><path id="e1tOjKadk0n3" d="M588.072,63.1777L542.144,63.1777L542.144,395.442L588.072,395.442L588.072,63.1777Z" opacity="0.3" fill="rgb(3,127,255)" stroke="none" stroke-width="1"/><path id="e1tOjKadk0n4" d="M534.292,63.1777L488.364,63.1777L488.364,395.442L534.292,395.442L534.292,63.1777Z" opacity="0.3" fill="rgb(3,127,255)" stroke="none" stroke-width="1"/><path id="e1tOjKadk0n5" d="M264.043,116.32L328.978,116.32L328.978,201.294L355.368,201.294L355.368,202.138L328.135,202.138L328.135,117.164L264.043,117.164L264.043,116.32Z" clip-rule="evenodd" fill="rgb(3,127,255)" fill-opacity="0.43" fill-rule="evenodd" stroke="none" stroke-width="1"/><path id="e1tOjKadk0n6" d="M452.343,146.489L452.343,104.871L453.186,104.871L453.186,146.489L452.343,146.489Z" clip-rule="evenodd" fill="rgb(3,127,255)" fill-opacity="0.43" fill-rule="evenodd" stroke="none" stroke-width="1"/><path id="e1tOjKadk0n7" d="M238.004,187.891L68.0605,187.891L68.0605,210.515L238.004,210.515L238.004,187.891Z" fill="rgb(3,127,255)" stroke="none" stroke-width="1"/><path id="e1tOjKadk0n8" d="M102.729,431.279L342.849,431.279" fill="none" stroke="rgb(3,127,255)" stroke-width="1.01001" stroke-linecap="round" stroke-miterlimit="10"/><path id="e1tOjKadk0n9" d="M43.3911,431.279L88.5454,431.279" fill="none" stroke="rgb(3,127,255)" stroke-width="1.01001" stroke-linecap="round" stroke-miterlimit="10"/><path id="e1tOjKadk0n10" d="M43.7332,243.768L209.223,243.768" fill="none" stroke="rgb(3,127,255)" stroke-width="1.24375" stroke-miterlimit="10"/><path id="e1tOjKadk0n11" d="M618.733,426.213C622.699,421.531,620.973,410.99,618.919,410.99C615.543,410.99,612.651,423.15,612.651,423.15C612.651,423.15,608.483,407.001,600.045,399.402C600.045,399.402,598.27,413.58,599.958,421.179C599.958,421.179,594.824,409.327,588.072,411.86C588.072,411.86,593.316,430.87,594.509,431.701" fill="none" stroke="rgb(3,127,255)" stroke-width="1.01001" stroke-linecap="round" stroke-miterlimit="10"/><path id="e1tOjKadk0n12" d="M80.6481,431.372C80.6481,431.372,75.3799,415.14,77.3179,402.776C84.2514,406.851,87.2235,411.475,87.2235,411.475C87.2235,411.475,87.939,407.001,96.3775,399.402C96.3775,399.402,98.1523,413.581,96.4642,421.179C99.5817,416.883,103.22,413.321,108.35,411.86C108.35,411.86,105.08,430.998,96.9327,431.279" fill="none" stroke="rgb(3,127,255)" stroke-width="1.01001" stroke-linecap="round" stroke-miterlimit="10"/><path id="e1tOjKadk0n13" d="M452.763,75.3013C440.58,75.3013,430.703,85.1833,430.703,97.3725C430.703,109.562,440.58,119.444,452.763,119.444C464.947,119.444,474.823,109.562,474.823,97.3725C474.823,85.1833,464.947,75.3013,452.763,75.3013ZM429.86,97.3725C429.86,84.7162,440.114,74.457,452.763,74.457C465.413,74.457,475.668,84.7162,475.668,97.3725C475.668,110.028,465.413,120.288,452.763,120.288C440.114,120.288,429.86,110.028,429.86,97.3725Z" clip-rule="evenodd" fill="rgb(3,127,255)" fill-opacity="0.43" fill-rule="evenodd" stroke="none" stroke-width="1"/><path id="e1tOjKadk0n14" d="M452.763,104.031C456.438,104.031,459.418,101.05,459.418,97.3728C459.418,93.6958,456.438,90.7148,452.763,90.7148C449.088,90.7148,446.109,93.6958,446.109,97.3728C446.109,101.05,449.088,104.031,452.763,104.031Z" fill="rgb(3,127,255)" stroke="none" stroke-width="1"/><path id="e1tOjKadk0n15" d="M299.138,152.992C295.695,152.992,292.905,155.785,292.905,159.229C292.905,162.673,295.695,165.464,299.138,165.464C302.581,165.464,305.371,162.673,305.371,159.229C305.371,155.785,302.581,152.992,299.138,152.992ZM292.062,159.229C292.062,155.318,295.229,152.148,299.138,152.148C303.047,152.148,306.214,155.318,306.214,159.229C306.214,163.139,303.047,166.308,299.138,166.308C295.229,166.308,292.062,163.139,292.062,159.229Z" clip-rule="evenodd" fill="rgb(3,127,255)" fill-opacity="0.43" fill-rule="evenodd" stroke="none" stroke-width="1"/><path id="e1tOjKadk0n16" d="M344.574,99.844L307.949,99.844L307.949,99L345.417,99L345.417,159.228L344.574,159.228L344.574,99.844Z" clip-rule="evenodd" fill="rgb(3,127,255)" fill-opacity="0.43" fill-rule="evenodd" stroke="none" stroke-width="1"/><path id="e1tOjKadk0n17" d="M406.72,278.377L402.574,281.859L376.271,157.924L382.362,157.458C384.451,157.297,386.33,158.727,386.733,160.785L408.679,272.825C409.085,274.895,408.334,277.021,406.72,278.377Z" fill="rgb(3,127,255)" stroke="none" stroke-width="1"/><path id="e1tOjKadk0n18" d="M452.763,285.017C452.763,285.017,439.869,274.499,436.02,274.775C432.172,275.051,418.662,288.947,420.096,293.324C421.531,297.699,426.774,297.699,426.774,297.699C429.391,297.699,431.821,296.286,433.064,293.981C434.536,291.251,436.605,288.169,438.058,289.094C440.548,290.68,438.452,297.699,440.18,297.699C441.907,297.699,452.763,294.303,452.763,294.303L452.763,285.017Z" fill="rgb(204,164,135)" stroke="none" stroke-width="1"/><path id="e1tOjKadk0n19" d="M542.144,243.926L527.598,279.992C526.202,284.183,520.51,292.381,516.137,291.767L463.417,286.965" fill="none" stroke="rgb(204,204,204)" stroke-width="39.8" stroke-linecap="round" stroke-miterlimit="10"/><path id="e1tOjKadk0n20" d="M534.34,224.469C534.796,220.61,535.032,217.191,534.694,215.84C533.985,212.987,527.369,213.468,523.986,213.907C522.796,214.059,522.003,214.211,522.003,214.211L523.412,211.771L523.412,211.762L523.421,211.754L535.462,190.934L556.348,188.047L549.959,201.183C548.128,210.471,558.195,224.882,558.195,224.882L531.943,240.181C531.943,240.181,533.504,231.569,534.34,224.469Z" fill="rgb(233,190,159)" stroke="none" stroke-width="1"/><path id="e1tOjKadk0n21" d="M544.458,207.281C544.458,207.281,542.087,223.238,534.34,224.471C534.796,220.613,535.032,217.193,534.694,215.842C533.985,212.988,527.369,213.47,523.986,213.909L523.412,211.773L523.412,211.764L523.421,211.756L534.973,205.449L544.458,207.281Z" fill="rgb(227,167,120)" stroke="none" stroke-width="1"/><path id="e1tOjKadk0n22" d="M511.328,188.647C510.868,188.647,510.424,188.395,510.2,187.957C509.882,187.335,510.128,186.572,510.75,186.253L514.563,184.3C515.184,183.98,515.948,184.227,516.267,184.85C516.586,185.473,516.339,186.236,515.717,186.554L511.904,188.507C511.719,188.602,511.522,188.647,511.328,188.647Z" fill="rgb(1,1,1)" stroke="none" stroke-width="1"/><path id="e1tOjKadk0n23" d="M514.31,197.834C511.854,197.834,509.807,194.396,509.517,189.719C509.385,187.581,509.662,185.534,510.298,183.952C511.016,182.167,512.129,181.138,513.432,181.058C515.954,180.898,518.089,184.387,518.388,189.168C518.684,193.948,517.002,197.672,514.474,197.829C514.419,197.833,514.365,197.834,514.31,197.834ZM513.591,182.741C513.572,182.741,513.554,182.742,513.536,182.743C512.937,182.78,512.311,183.468,511.864,184.583C511.319,185.935,511.084,187.723,511.202,189.615C511.44,193.451,513.047,196.239,514.37,196.144C515.668,196.064,516.942,193.107,516.703,189.273C516.467,185.492,514.88,182.741,513.591,182.741Z" fill="rgb(150,127,93)" stroke="none" stroke-width="1"/><path id="e1tOjKadk0n24" d="M519.825,166.404C519.825,166.404,517.501,177.932,522.069,179.575C526.636,181.217,549.433,171.515,549.433,171.515L526.264,164.428L519.825,166.404Z" fill="rgb(150,127,93)" stroke="none" stroke-width="1"/><path id="e1tOjKadk0n25" d="M521.795,175.158C521.795,175.158,512.022,193.754,519.763,213.546C520.223,214.724,521.376,215.484,522.641,215.451C526.976,215.336,539.323,212.696,545.826,207.847L547.436,201.481L556.928,186.771C556.928,186.771,560.101,173.738,549.434,171.514C538.767,169.289,524.463,166.85,521.795,175.158Z" fill="rgb(233,190,159)" stroke="none" stroke-width="1"/><path id="e1tOjKadk0n26" d="M518.585,205.96C522.029,206.68,523.415,203.41,523.415,203.41" fill="none" stroke="rgb(1,1,1)" stroke-width="1.24375" stroke-miterlimit="10"/><path id="e1tOjKadk0n27" d="M561.423,189.706C563.819,197.018,549.457,206.194,546.545,199.246C546.393,198.883,546.824,197.533,547.381,195.785C548.756,186.126,540.334,187.156,540.005,190.255C539.921,191.04,537.77,197.052,535.373,195.625C533.846,194.721,534.681,192.391,534.335,186.405C531.829,184.455,530.461,180.774,529.719,177.473C524.428,176.83,519.348,175.75,517.821,174.695C515.627,173.183,510.488,166.016,515.931,156.213C520.58,147.847,557.127,160.207,557.701,169.469C566.012,168.954,560.511,186.101,561.169,188.896C561.253,189.166,561.338,189.435,561.423,189.706Z" fill="rgb(3,127,255)" stroke="none" stroke-width="1"/><path id="e1tOjKadk0n28" d="M518.265,188.049C518.265,188.049,511.383,198.299,511.709,199.704C512.033,201.109,518.586,200.145,518.586,200.145" fill="rgb(233,190,159)" stroke="none" stroke-width="1"/><path id="e1tOjKadk0n29" d="M540.459,193.046C540.459,193.046,543.898,187.185,545.733,191.641C547.195,195.193,544.075,201.607,541.943,200.718C539.857,199.848,542.904,195.605,542.904,195.605" fill="none" stroke="rgb(1,1,1)" stroke-width="1.24375" stroke-miterlimit="10"/><path id="e1tOjKadk0n30" d="M528.839,189.812C528.645,189.812,528.448,189.768,528.263,189.672L523.544,187.255C522.922,186.936,522.675,186.173,522.994,185.551C523.313,184.928,524.077,184.682,524.698,185.001L529.417,187.418C530.039,187.737,530.286,188.5,529.967,189.123C529.742,189.56,529.299,189.812,528.839,189.812Z" fill="rgb(1,1,1)" stroke="none" stroke-width="1"/><path id="e1tOjKadk0n31" d="M524.417,201.099C521.35,201.099,518.76,197.505,518.464,192.763C518.324,190.503,518.745,188.334,519.647,186.655C520.61,184.867,522.006,183.828,523.583,183.73C526.751,183.54,529.476,187.192,529.779,192.058C530.081,196.926,527.833,200.893,524.663,201.091C524.58,201.096,524.498,201.099,524.417,201.099ZM523.818,185.143C523.769,185.143,523.72,185.145,523.67,185.148C522.603,185.214,521.618,185.989,520.898,187.328C520.118,188.777,519.757,190.675,519.882,192.674C520.127,196.611,522.276,199.827,524.574,199.673C526.872,199.53,528.606,196.083,528.362,192.147C528.123,188.295,526.06,185.143,523.818,185.143Z" fill="rgb(150,127,93)" stroke="none" stroke-width="1"/><path id="e1tOjKadk0n32" d="M523.771,193.495C524.479,193.495,525.053,192.921,525.053,192.213C525.053,191.505,524.479,190.932,523.771,190.932C523.064,190.932,522.49,191.505,522.49,192.213C522.49,192.921,523.064,193.495,523.771,193.495Z" fill="rgb(1,1,1)" stroke="none" stroke-width="1"/><path id="e1tOjKadk0n33" d="M513.951,191.839C514.555,191.839,515.045,191.348,515.045,190.744C515.045,190.14,514.555,189.65,513.951,189.65C513.347,189.65,512.857,190.14,512.857,190.744C512.857,191.348,513.347,191.839,513.951,191.839Z" fill="rgb(1,1,1)" stroke="none" stroke-width="1"/><path id="e1tOjKadk0n34" d="M542.144,193.334C542.144,193.334,542.778,192.498,543.635,192.868" fill="none" stroke="rgb(1,1,1)" stroke-width="1.24375" stroke-miterlimit="10"/><path id="e1tOjKadk0n35" d="M388.059,296.826L383.84,296.826L375.55,241.321L390.047,231.02L390.047,233.526L379.77,243.069L388.059,296.826Z" fill="rgb(11,58,108)" stroke="none" stroke-width="1"/><path id="e1tOjKadk0n36" d="M497.274,399.402L507.386,430.347C507.386,430.347,459.32,431.519,458.55,429.724C457.781,427.928,480.709,418.473,494.562,419.474L488.627,406.245L497.274,399.402Z" fill="rgb(3,127,255)" stroke="none" stroke-width="1"/><path id="e1tOjKadk0n37" d="M443.298,325.945C437.4,312.451,449.791,298.148,463.98,302.074L548.597,325.487C555.334,327.351,559.286,334.328,557.423,341.069C555.559,347.81,548.587,351.764,541.849,349.9L473.603,331.016L503.033,394.042C505.992,400.378,503.256,407.916,496.922,410.876C490.589,413.837,483.056,411.099,480.097,404.762L443.361,326.089L443.298,325.945Z" clip-rule="evenodd" fill="rgb(11,58,108)" fill-rule="evenodd" stroke="none" stroke-width="1"/><path id="e1tOjKadk0n38" d="M443.298,325.945C437.4,312.451,449.791,298.148,463.98,302.074L548.597,325.487C555.334,327.351,559.286,334.328,557.423,341.069C555.559,347.81,548.587,351.764,541.849,349.9L473.603,331.016L503.033,394.042C505.992,400.378,503.256,407.916,496.922,410.876C490.589,413.837,483.056,411.099,480.097,404.762L443.361,326.089L443.298,325.945Z" clip-rule="evenodd" fill="rgb(0,0,0)" fill-opacity="0.15" fill-rule="evenodd" stroke="none" stroke-width="1"/><path id="e1tOjKadk0n39" d="M410.197,413.423L388.433,428.746C388.433,428.746,385.185,424.939,380.595,419.484C378.805,417.366,376.814,414.993,374.73,412.494C363.768,399.382,350.3,382.945,350.731,381.864C351.355,380.302,375.886,396.259,387.286,406.888C389.176,408.644,390.695,410.257,391.7,411.616L401.657,403.941L405.116,401.274L406.07,403.562L407.741,407.546L410.197,413.423Z" fill="rgb(3,127,255)" stroke="none" stroke-width="1"/><path id="e1tOjKadk0n40" d="M408.236,408.731C408.236,408.731,389.487,415.617,386.088,417.684C382.689,419.752,381.45,420.505,381.45,420.505C379.661,418.385,377.806,416.176,375.723,413.677C379.244,410.601,383.116,408.38,387.285,406.887C389.175,408.643,390.694,410.256,391.698,411.615L401.655,403.94L406.069,403.561L408.236,408.731Z" opacity="0.2" fill="rgb(0,0,0)" stroke="none" stroke-width="1"/><path id="e1tOjKadk0n41" d="M549.657,314.099L576.42,311.381C576.42,311.381,584.629,262.5,576.42,245.728C567.65,232.96,561.687,226.857,558.148,222.535C557.368,221.581,556.054,221.262,554.928,221.761L531.207,232.259C531.207,232.259,519.619,245.465,521.266,261.743C522.912,278.02,521.273,319.946,521.273,319.946L549.657,314.099Z" fill="rgb(230,230,230)" stroke="none" stroke-width="1"/><path id="e1tOjKadk0n42" d="M521.577,316.463C521.578,316.463,521.578,316.463,521.578,316.462L521.577,316.463ZM521.687,316.414C521.724,316.4,521.771,316.384,521.83,316.367C522.132,316.279,522.616,316.184,523.274,316.084C524.582,315.887,526.505,315.683,528.865,315.471C532.102,315.178,536.138,314.871,540.496,314.539C542.489,314.386,544.55,314.229,546.632,314.066C553.26,313.547,560.101,312.968,565.651,312.302C568.425,311.97,570.884,311.615,572.835,311.234C574.477,310.914,575.803,310.568,576.655,310.182C576.657,310.195,576.66,310.208,576.662,310.222C576.71,310.478,576.744,310.847,576.758,311.324C576.787,312.274,576.736,313.603,576.599,315.204C576.326,318.404,575.709,322.661,574.706,327.11C573.702,331.561,572.315,336.19,570.505,340.139C568.697,344.08,566.491,347.292,563.872,349.003C560.281,350.373,555.862,350.204,551.208,349.137C546.543,348.068,541.689,346.107,537.284,343.961C532.88,341.817,528.936,339.492,526.092,337.704C524.671,336.81,523.525,336.051,522.735,335.515C522.34,335.247,522.035,335.035,521.828,334.89C521.774,334.853,521.727,334.82,521.687,334.792L521.687,316.414ZM576.574,309.92C576.574,309.92,576.575,309.921,576.575,309.922C576.575,309.921,576.574,309.92,576.574,309.92Z" fill="rgb(11,58,108)" stroke="rgb(3,127,255)" stroke-width="1.24375"/><path id="e1tOjKadk0n43" d="M558.084,431.279L521.799,431.279C520.4,431.279,519.268,430.144,519.268,428.746C519.268,427.347,520.4,426.213,521.799,426.213L559.571,426.213L558.084,431.279Z" fill="rgb(11,58,108)" stroke="none" stroke-width="1"/><path id="e1tOjKadk0n44" d="M462.252,331.287C467.02,326.216,473.671,323.34,480.63,323.34L555.61,323.34C563.533,323.34,569.955,329.766,569.955,337.692C569.955,345.619,563.533,352.045,555.61,352.045L482.126,352.045L423.325,414.593C417.897,420.366,408.818,420.645,403.047,415.214C397.276,409.783,396.998,400.7,402.426,394.926L462.252,331.287Z" clip-rule="evenodd" fill="rgb(11,58,108)" fill-rule="evenodd" stroke="none" stroke-width="1"/><path id="e1tOjKadk0n45" d="M462.252,331.287C467.02,326.216,473.671,323.34,480.63,323.34L555.61,323.34C563.533,323.34,569.955,329.766,569.955,337.692C569.955,345.619,563.533,352.045,555.61,352.045L482.126,352.045L423.325,414.593C417.897,420.366,408.818,420.645,403.047,415.214C397.276,409.783,396.998,400.7,402.426,394.926L462.252,331.287Z" clip-rule="evenodd" fill="rgb(11,58,108)" fill-rule="evenodd" stroke="none" stroke-width="1"/><path id="e1tOjKadk0n46" d="M570.043,352.557L494.096,352.557C492.698,352.557,491.565,353.691,491.565,355.09C491.565,356.488,492.698,357.622,494.096,357.622L570.043,357.622L570.043,352.557Z" fill="rgb(11,58,108)" stroke="none" stroke-width="1"/><path id="e1tOjKadk0n47" d="M558.504,431.337L599.226,235.51C599.509,234.15,598.644,232.817,597.288,232.52C595.913,232.219,594.556,233.099,594.269,234.478L553.558,430.254L558.504,431.337Z" fill="rgb(11,58,108)" stroke="none" stroke-width="1"/><path id="e1tOjKadk0n48" d="M578.439,316.26L511.902,316.26C509.111,316.26,506.85,318.523,506.85,321.316C506.85,324.107,509.111,326.371,511.902,326.371L578.439,326.371L578.439,316.26Z" fill="rgb(11,58,108)" stroke="none" stroke-width="1"/><path id="e1tOjKadk0n49" d="M558.504,431.337L559.568,426.217L559.57,426.213L559.569,426.213L599.226,235.51C599.508,234.151,598.644,232.817,597.288,232.52C595.913,232.219,594.556,233.099,594.269,234.478L577.263,316.26L511.902,316.26C509.111,316.26,506.849,318.524,506.849,321.315C506.849,324.107,509.111,326.371,511.902,326.371L575.16,326.371L569.715,352.557L494.095,352.557C492.697,352.557,491.564,353.691,491.564,355.09C491.564,356.489,492.697,357.623,494.095,357.623L568.661,357.623L554.398,426.213L521.797,426.213C520.399,426.213,519.266,427.347,519.266,428.746C519.266,430.145,520.399,431.279,521.797,431.279L558.083,431.279L558.093,431.246L558.504,431.337Z" clip-rule="evenodd" fill="rgb(255,255,255)" fill-opacity="0.21" fill-rule="evenodd" stroke="none" stroke-width="1"/><path id="e1tOjKadk0n50" d="M417.518,300.416L367.594,300.416L367.594,293.48C367.594,292.438,368.528,291.647,369.555,291.818L416.113,298.759C416.924,298.895,417.518,299.597,417.518,300.42L417.518,300.416Z" fill="rgb(11,58,108)" stroke="none" stroke-width="1"/><path id="e1tOjKadk0n51" d="M400.729,282.783C398.626,283.196,396.588,281.824,396.176,279.721L373.211,162.479C372.798,160.375,374.168,158.335,376.271,157.923C378.374,157.51,380.412,158.882,380.825,160.986L403.79,278.228C404.203,280.332,402.832,282.372,400.729,282.783Z" fill="rgb(11,58,108)" stroke="none" stroke-width="1"/><path id="e1tOjKadk0n52" d="M456.228,297.699L420.582,297.699L420.582,300.102L456.228,300.102L456.228,297.699Z" fill="rgb(11,58,108)" stroke="none" stroke-width="1"/><path id="e1tOjKadk0n53" d="M463.416,282.17C463.416,282.17,450.522,271.651,446.673,271.927C442.825,272.203,425.459,291.731,426.894,296.107C428.328,300.484,434.044,297.699,434.044,297.699C436.662,297.699,441.419,296.455,442.662,294.15C444.134,291.421,451.036,297.699,452.763,297.699C456.228,297.699,463.416,291.456,463.416,291.456L463.416,282.17Z" fill="rgb(233,190,159)" stroke="none" stroke-width="1"/><path id="e1tOjKadk0n54" d="M555.61,251.119L542.264,291.175C540.868,295.366,535.176,303.564,530.804,302.949L470.775,288.708" fill="none" stroke="rgb(242,242,242)" stroke-width="39.8" stroke-linecap="round" stroke-miterlimit="10"/><path id="e1tOjKadk0n55" d="M452.94,431.709C452.94,432.874,451.994,433.812,450.83,433.812C413.903,433.702,386.689,433.373,381.483,432.976C379.23,432.798,377.466,432.132,376.091,430.932C372.833,428.088,372.589,423.106,372.918,420.878C373.812,414.765,381.095,412.198,388.816,409.48C392.604,408.137,396.52,406.761,400.039,404.912C416.756,396.14,429.819,374.788,426.907,360.977C424.578,349.917,411.811,343.331,399.466,336.965C386.934,330.498,367.256,324.394,368.665,313.747C369.045,310.919,370.066,308.15,371.737,305.482L390.579,305.482C388.082,307.863,385.533,310.649,384.74,314.102C383.466,319.649,389.744,327.197,401.397,333.216C414.005,339.717,428.291,347.088,431.033,360.107C432.696,367.992,430.274,377.676,424.207,387.377C418.511,396.478,410.418,404.229,401.997,408.652C398.208,410.636,394.149,412.072,390.217,413.456C383.736,415.744,377.618,417.897,377.095,421.485C376.892,422.853,377.061,426.179,378.859,427.75C379.534,428.333,380.496,428.661,381.812,428.763C386.917,429.16,414.013,429.481,450.838,429.59C452.003,429.59,452.948,430.545,452.94,431.709Z" fill="rgb(3,127,255)" stroke="none" stroke-width="1"/><path id="e1tOjKadk0n56" d="M487.2,300.416L349.654,300.416L349.654,305.482L487.2,305.482L487.2,300.416Z" opacity="0.71" fill="rgb(3,127,255)" fill-opacity="0.43" stroke="none" stroke-width="1"/><path id="e1tOjKadk0n57" d="M589.764,197.474L583.583,222.567L573.771,220.148L585.072,174.273C585.739,171.562,588.477,169.905,591.186,170.574C593.896,171.242,595.551,173.981,594.883,176.691L590.17,195.825L598.494,196.957L588.082,244.109C587.982,244.564,587.531,244.852,587.076,244.751C586.621,244.65,586.333,244.199,586.434,243.744L596.451,198.383L589.764,197.474Z" clip-rule="evenodd" fill="rgb(11,58,108)" fill-rule="evenodd" stroke="none" stroke-width="1"/><path id="e1tOjKadk0n58" d="M589.764,197.474L583.583,222.567L573.771,220.148L585.072,174.273C585.739,171.562,588.477,169.905,591.186,170.574C593.896,171.242,595.551,173.981,594.883,176.691L590.17,195.825L598.494,196.957L588.082,244.109C587.982,244.564,587.531,244.852,587.076,244.751C586.621,244.65,586.333,244.199,586.434,243.744L596.451,198.383L589.764,197.474Z" clip-rule="evenodd" fill="rgb(255,255,255)" fill-opacity="0.21" fill-rule="evenodd" stroke="none" stroke-width="1"/><path id="e1tOjKadk0n59" d="M554.2,365.889L562.602,365.889L552.388,412.146" fill="none" stroke="rgb(3,127,255)" stroke-width="1.01001" stroke-linecap="round" stroke-miterlimit="10"/><path id="e1tOjKadk0n60" d="M606.942,430.723L652.738,430.723" fill="none" stroke="rgb(3,127,255)" stroke-width="1.01001" stroke-linecap="round" stroke-miterlimit="10"/><path id="e1tOjKadk0n61" d="M519.268,430.723L590.771,430.723" fill="none" stroke="rgb(3,127,255)" stroke-width="1.01001" stroke-linecap="round" stroke-miterlimit="10"/><path id="e1tOjKadk0n62" d="M299.139,159.651L188.324,159.651L188.324,158.807L299.139,158.807L299.139,159.651Z" clip-rule="evenodd" fill="rgb(3,127,255)" fill-opacity="0.43" fill-rule="evenodd" stroke="none" stroke-width="1"/><path id="e1tOjKadk0n63" d="M395.708,62.1875L213.24,62.1875L213.24,71.9219L395.708,71.9219L395.708,62.1875Z" fill="rgb(3,127,255)" stroke="none" stroke-width="1"/><path id="e1tOjKadk0n64" d="M515.141,97.373L606.942,97.373" fill="none" stroke="rgb(120,210,238)" stroke-width="1.24375" stroke-miterlimit="10"/><path id="e1tOjKadk0n65" d="M515.141,90.7148L606.942,90.7148" fill="none" stroke="rgb(120,210,238)" stroke-width="1.24375" stroke-miterlimit="10"/><path id="e1tOjKadk0n66" d="M112.602,152.57L112.602,135.783L130.244,135.783" fill="none" stroke="rgb(3,127,255)" stroke-width="1.24375" stroke-miterlimit="10"/><path id="e1tOjKadk0n67" d="M264.043,312.094L264.043,362.68" fill="none" stroke="rgb(3,127,255)" stroke-width="1.24375" stroke-miterlimit="10"/><path id="e1tOjKadk0n68" d="M361.045,431.701C361.045,431.701,346.278,415.551,349.653,415.551C353.029,415.551,362.311,423.15,362.311,423.15C362.311,423.15,366.48,407.001,374.918,399.402C374.918,399.402,376.692,413.58,375.005,421.179C375.005,421.179,380.139,409.327,386.89,411.86C386.89,411.86,381.647,430.87,380.453,431.701" fill="none" stroke="rgb(3,127,255)" stroke-width="1.01001" stroke-linecap="round" stroke-miterlimit="10"/><script><![CDATA[!function(t,n){"object"==typeof exports&&"undefined"!=typeof module?module.exports=n():"function"==typeof define&&define.amd?define(n):(t="undefined"!=typeof globalThis?globalThis:t||self).__SVGATOR_PLAYER__=n()}(this,(function(){"use strict";function t(n){return(t="function"==typeof Symbol&&"symbol"==typeof Symbol.iterator?function(t){return typeof t}:function(t){return t&&"function"==typeof Symbol&&t.constructor===Symbol&&t!==Symbol.prototype?"symbol":typeof t})(n)}function n(t,n){if(!(t instanceof n))throw new TypeError("Cannot call a class as a function")}function r(t,n){for(var r=0;r<n.length;r++){var e=n[r];e.enumerable=e.enumerable||!1,e.configurable=!0,"value"in e&&(e.writable=!0),Object.defineProperty(t,e.key,e)}}function e(t,n,e){return n&&r(t.prototype,n),e&&r(t,e),t}function i(t){return(i=Object.setPrototypeOf?Object.getPrototypeOf:function(t){return t.__proto__||Object.getPrototypeOf(t)})(t)}function o(t,n){return(o=Object.setPrototypeOf||function(t,n){return t.__proto__=n,t})(t,n)}function u(t,n){return!n||"object"!=typeof n&&"function"!=typeof n?function(t){if(void 0===t)throw new ReferenceError("this hasn't been initialised - super() hasn't been called");return t}(t):n}function a(t){var n=function(){if("undefined"==typeof Reflect||!Reflect.construct)return!1;if(Reflect.construct.sham)return!1;if("function"==typeof Proxy)return!0;try{return Boolean.prototype.valueOf.call(Reflect.construct(Boolean,[],(function(){}))),!0}catch(t){return!1}}();return function(){var r,e=i(t);if(n){var o=i(this).constructor;r=Reflect.construct(e,arguments,o)}else r=e.apply(this,arguments);return u(this,r)}}function l(t,n,r){return(l="undefined"!=typeof Reflect&&Reflect.get?Reflect.get:function(t,n,r){var e=function(t,n){for(;!Object.prototype.hasOwnProperty.call(t,n)&&null!==(t=i(t)););return t}(t,n);if(e){var o=Object.getOwnPropertyDescriptor(e,n);return o.get?o.get.call(r):o.value}})(t,n,r||t)}var f=s(Math.pow(10,-6));function s(t){var n=arguments.length>1&&void 0!==arguments[1]?arguments[1]:6;if(Number.isInteger(t))return t;var r=Math.pow(10,n);return Math.round((+t+Number.EPSILON)*r)/r}function c(t,n){var r=arguments.length>2&&void 0!==arguments[2]?arguments[2]:f;return Math.abs(t-n)<r}var h=Math.PI/180;function v(t){return t}function y(t,n,r){var e=1-r;return 3*r*e*(t*e+n*r)+r*r*r}function d(){var t=arguments.length>0&&void 0!==arguments[0]?arguments[0]:0,n=arguments.length>1&&void 0!==arguments[1]?arguments[1]:0,r=arguments.length>2&&void 0!==arguments[2]?arguments[2]:1,e=arguments.length>3&&void 0!==arguments[3]?arguments[3]:1;return t<0||t>1||r<0||r>1?null:c(t,n)&&c(r,e)?v:function(i){if(i<=0)return t>0?i*n/t:0===n&&r>0?i*e/r:0;if(i>=1)return r<1?1+(i-1)*(e-1)/(r-1):1===r&&t<1?1+(i-1)*(n-1)/(t-1):1;for(var o,u=0,a=1;u<a;){var l=y(t,r,o=(u+a)/2);if(c(i,l))break;l<i?u=o:a=o}return y(n,e,o)}}function g(){return 1}function p(t){return 1===t?1:0}function m(){var t=arguments.length>0&&void 0!==arguments[0]?arguments[0]:1,n=arguments.length>1&&void 0!==arguments[1]?arguments[1]:0;if(1===t){if(0===n)return p;if(1===n)return g}var r=1/t;return function(t){return t>=1?1:(t+=n*r)-t%r}}function b(t,n,r){return t>=.5?r:n}function w(t,n,r){return 0===t||n===r?n:t*(r-n)+n}function x(t,n,r){var e=w(t,n,r);return e<=0?0:e}function k(t,n,r){return 0===t?n:1===t?r:{x:w(t,n.x,r.x),y:w(t,n.y,r.y)}}function A(t,n,r){var e=function(t,n,r){return Math.round(w(t,n,r))}(t,n,r);return e<=0?0:e>=255?255:e}function _(t,n,r){return 0===t?n:1===t?r:{r:A(t,n.r,r.r),g:A(t,n.g,r.g),b:A(t,n.b,r.b),a:w(t,null==n.a?1:n.a,null==r.a?1:r.a)}}function S(t,n,r){if(0===t)return n;if(1===t)return r;var e=n.length;if(e!==r.length)return b(t,n,r);for(var i=[],o=0;o<e;o++)i.push(_(t,n[o],r[o]));return i}function O(t,n){for(var r=[],e=0;e<t;e++)r.push(n);return r}function M(t,n){if(--n<=0)return t;var r=(t=Object.assign([],t)).length;do{for(var e=0;e<r;e++)t.push(t[e])}while(--n>0);return t}var j,P=function(){function t(r){n(this,t),this.list=r,this.length=r.length}return e(t,[{key:"setAttribute",value:function(t,n){for(var r=this.list,e=0;e<this.length;e++)r[e].setAttribute(t,n)}},{key:"removeAttribute",value:function(t){for(var n=this.list,r=0;r<this.length;r++)n[r].removeAttribute(t)}},{key:"style",value:function(t,n){for(var r=this.list,e=0;e<this.length;e++)r[e].style[t]=n}}]),t}(),B=/-./g,E=function(t,n){return n.toUpperCase()};function F(t){return"function"==typeof t?t:b}function I(t){return t?"function"==typeof t?t:Array.isArray(t)?function(t){var n=arguments.length>1&&void 0!==arguments[1]?arguments[1]:v;if(!Array.isArray(t))return n;switch(t.length){case 1:return m(t[0])||n;case 2:return m(t[0],t[1])||n;case 4:return d(t[0],t[1],t[2],t[3])||n}return n}(t,null):function(t,n){var r=arguments.length>2&&void 0!==arguments[2]?arguments[2]:v;switch(t){case"linear":return v;case"steps":return m(n.steps||1,n.jump||0)||r;case"bezier":case"cubic-bezier":return d(n.x1||0,n.y1||0,n.x2||0,n.y2||0)||r}return r}(t.type,t.value,null):null}function R(t,n,r){var e=arguments.length>3&&void 0!==arguments[3]&&arguments[3],i=n.length-1;if(t<=n[0].t)return e?[0,0,n[0].v]:n[0].v;if(t>=n[i].t)return e?[i,1,n[i].v]:n[i].v;var o,u=n[0],a=null;for(o=1;o<=i;o++){if(!(t>n[o].t)){a=n[o];break}u=n[o]}return null==a?e?[i,1,n[i].v]:n[i].v:u.t===a.t?e?[o,1,a.v]:a.v:(t=(t-u.t)/(a.t-u.t),u.e&&(t=u.e(t)),e?[o,t,r(t,u.v,a.v)]:r(t,u.v,a.v))}function q(t,n){var r=arguments.length>2&&void 0!==arguments[2]?arguments[2]:null;return t&&t.length?"function"!=typeof n?null:("function"!=typeof r&&(r=null),function(e){var i=R(e,t,n);return null!=i&&r&&(i=r(i)),i}):null}function T(t,n){return t.t-n.t}function N(n,r,e,i,o){var u,a="@"===e[0],l="#"===e[0],f=j[e],s=b;switch(a?(u=e.substr(1),e=u.replace(B,E)):l&&(e=e.substr(1)),t(f)){case"function":if(s=f(i,o,R,I,e,a,r,n),l)return s;break;case"string":s=q(i,F(f));break;case"object":if((s=q(i,F(f.i),f.f))&&"function"==typeof f.u)return f.u(r,s,e,a,n)}return s?function(t,n,r){var e=arguments.length>3&&void 0!==arguments[3]&&arguments[3];if(e)return t instanceof P?function(e){return t.style(n,r(e))}:function(e){return t.style[n]=r(e)};if(Array.isArray(n)){var i=n.length;return function(e){var o=r(e);if(null==o)for(var u=0;u<i;u++)t[u].removeAttribute(n);else for(var a=0;a<i;a++)t[a].setAttribute(n,o)}}return function(e){var i=r(e);null==i?t.removeAttribute(n):t.setAttribute(n,i)}}(r,e,s,a):null}function C(n,r,e,i){if(!i||"object"!==t(i))return null;var o=null,u=null;return Array.isArray(i)?u=function(t){if(!t||!t.length)return null;for(var n=0;n<t.length;n++)t[n].e&&(t[n].e=I(t[n].e));return t.sort(T)}(i):(u=i.keys,o=i.data||null),u?N(n,r,e,u,o):null}function z(t,n,r){if(!r)return null;var e=[];for(var i in r)if(r.hasOwnProperty(i)){var o=C(t,n,i,r[i]);o&&e.push(o)}return e.length?e:null}function L(t,n){if(!n.duration||n.duration<0)return null;var r=function(t,n){if(!n)return null;var r=[];if(Array.isArray(n))for(var e=n.length,i=0;i<e;i++){var o=n[i];if(2===o.length){var u=null;if("string"==typeof o[0])u=t.getElementById(o[0]);else if(Array.isArray(o[0])){u=[];for(var a=0;a<o[0].length;a++)if("string"==typeof o[0][a]){var l=t.getElementById(o[0][a]);l&&u.push(l)}u=u.length?1===u.length?u[0]:new P(u):null}if(u){var f=z(t,u,o[1]);f&&(r=r.concat(f))}}}else for(var s in n)if(n.hasOwnProperty(s)){var c=t.getElementById(s);if(c){var h=z(t,c,n[s]);h&&(r=r.concat(h))}}return r.length?r:null}(t,n.elements);return r?function(t,n){var r=arguments.length>2&&void 0!==arguments[2]?arguments[2]:1/0,e=arguments.length>3&&void 0!==arguments[3]?arguments[3]:1,i=arguments.length>4&&void 0!==arguments[4]&&arguments[4],o=arguments.length>5&&void 0!==arguments[5]?arguments[5]:1,u=t.length,a=e>0?n:0;i&&r%2==0&&(a=n-a);var l=null;return function(f,s){var c=f%n,h=1+(f-c)/n;s*=e,i&&h%2==0&&(s=-s);var v=!1;if(h>r)c=a,v=!0,-1===o&&(c=e>0?0:n);else if(s<0&&(c=n-c),c===l)return!1;l=c;for(var y=0;y<u;y++)t[y](c);return v}}(r,n.duration,n.iterations||1/0,n.direction||1,!!n.alternate,n.fill||1):null}var D=function(){function t(r,e){var i=arguments.length>2&&void 0!==arguments[2]?arguments[2]:{};n(this,t),this._id=0,this._running=!1,this._rollingBack=!1,this._animations=r,this.duration=e.duration,this.alternate=e.alternate,this.fill=e.fill,this.iterations=e.iterations,this.direction=i.direction||1,this.speed=i.speed||1,this.fps=i.fps||100,this.offset=i.offset||0,this.rollbackStartOffset=0}return e(t,[{key:"_rollback",value:function(){var t=this,n=1/0,r=null;this.rollbackStartOffset=this.offset,this._rollingBack||(this._rollingBack=!0,this._running=!0);this._id=window.requestAnimationFrame((function e(i){if(t._rollingBack){null==r&&(r=i);var o=i-r,u=t.rollbackStartOffset-o,a=Math.round(u*t.speed);if(a>t.duration&&n!=1/0){var l=!!t.alternate&&a/t.duration%2>1,f=a%t.duration;a=(f+=l?t.duration:0)||t.duration}var s=t.fps?1e3/t.fps:0,c=Math.max(0,a);if(c<n-s){t.offset=c,n=c;for(var h=t._animations,v=h.length,y=0;y<v;y++)h[y](c,t.direction)}var d=!1;if(t.iterations>0&&-1===t.fill){var g=t.iterations*t.duration,p=g==a;a=p?0:a,t.offset=p?0:t.offset,d=a>g}a>0&&t.offset>=a&&!d?t._id=window.requestAnimationFrame(e):t.stop()}}))}},{key:"_start",value:function(){var t=this,n=arguments.length>0&&void 0!==arguments[0]?arguments[0]:0,r=-1/0,e=null,i={},o=function o(u){t._running=!0,null==e&&(e=u);var a=Math.round((u-e+n)*t.speed),l=t.fps?1e3/t.fps:0;if(a>r+l&&!t._rollingBack){t.offset=a,r=a;for(var f=t._animations,s=f.length,c=0,h=0;h<s;h++)i[h]?c++:(i[h]=f[h](a,t.direction),i[h]&&c++);if(c===s)return void t._stop()}t._id=window.requestAnimationFrame(o)};this._id=window.requestAnimationFrame(o)}},{key:"_stop",value:function(){this._id&&window.cancelAnimationFrame(this._id),this._running=!1,this._rollingBack=!1}},{key:"play",value:function(){!this._rollingBack&&this._running||(this._rollingBack=!1,this.rollbackStartOffset>this.duration&&(this.offset=this.rollbackStartOffset-(this.rollbackStartOffset-this.offset)%this.duration,this.rollbackStartOffset=0),this._start(this.offset))}},{key:"stop",value:function(){this._stop(),this.offset=0,this.rollbackStartOffset=0;var t=this.direction,n=this._animations;window.requestAnimationFrame((function(){for(var r=0;r<n.length;r++)n[r](0,t)}))}},{key:"reachedToEnd",value:function(){return this.iterations>0&&this.offset>=this.iterations*this.duration}},{key:"restart",value:function(){this._stop(),this.offset=0,this._start()}},{key:"pause",value:function(){this._stop()}},{key:"reverse",value:function(){this.direction=-this.direction}}],[{key:"build",value:function(n,r){return(n=function(t,n){if(j=n,!t||!t.root||!Array.isArray(t.animations))return null;for(var r=document.getElementsByTagName("svg"),e=!1,i=0;i<r.length;i++)if(r[i].id===t.root&&!r[i].svgatorAnimation){(e=r[i]).svgatorAnimation=!0;break}if(!e)return null;var o=t.animations.map((function(t){return L(e,t)})).filter((function(t){return!!t}));return o.length?{element:e,animations:o,animationSettings:t.animationSettings,options:t.options||void 0}:null}(n,r))?{el:n.element,options:n.options||{},player:new t(n.animations,n.animationSettings,n.options)}:null}}]),t}();function Q(t){return s(t)+""}function U(t){var n=arguments.length>1&&void 0!==arguments[1]?arguments[1]:" ";return t&&t.length?t.map(Q).join(n):""}function V(t){return t?null==t.a||t.a>=1?"rgb("+t.r+","+t.g+","+t.b+")":"rgba("+t.r+","+t.g+","+t.b+","+t.a+")":"transparent"}!function(){for(var t=0,n=["ms","moz","webkit","o"],r=0;r<n.length&&!window.requestAnimationFrame;++r)window.requestAnimationFrame=window[n[r]+"RequestAnimationFrame"],window.cancelAnimationFrame=window[n[r]+"CancelAnimationFrame"]||window[n[r]+"CancelRequestAnimationFrame"];window.requestAnimationFrame||(window.requestAnimationFrame=function(n){var r=Date.now(),e=Math.max(0,16-(r-t)),i=window.setTimeout((function(){n(r+e)}),e);return t=r+e,i},window.cancelAnimationFrame=window.clearTimeout)}();var G={f:null,i:function(t,n,r){return 0===t?n:1===t?r:{x:x(t,n.x,r.x),y:x(t,n.y,r.y)}},u:function(t,n){return function(r){var e=n(r);t.setAttribute("rx",Q(e.x)),t.setAttribute("ry",Q(e.y))}}},H={f:null,i:function(t,n,r){return 0===t?n:1===t?r:{width:x(t,n.width,r.width),height:x(t,n.height,r.height)}},u:function(t,n){return function(r){var e=n(r);t.setAttribute("width",Q(e.width)),t.setAttribute("height",Q(e.height))}}},Y=Math.sin,Z=Math.cos,J=Math.acos,K=Math.asin,W=Math.tan,X=Math.atan2,$=Math.PI/180,tt=180/Math.PI,nt=Math.sqrt,rt=function(){function t(){var r=arguments.length>0&&void 0!==arguments[0]?arguments[0]:1,e=arguments.length>1&&void 0!==arguments[1]?arguments[1]:0,i=arguments.length>2&&void 0!==arguments[2]?arguments[2]:0,o=arguments.length>3&&void 0!==arguments[3]?arguments[3]:1,u=arguments.length>4&&void 0!==arguments[4]?arguments[4]:0,a=arguments.length>5&&void 0!==arguments[5]?arguments[5]:0;n(this,t),this.m=[r,e,i,o,u,a],this.i=null,this.w=null,this.s=null}return e(t,[{key:"determinant",get:function(){var t=this.m;return t[0]*t[3]-t[1]*t[2]}},{key:"isIdentity",get:function(){if(null===this.i){var t=this.m;this.i=1===t[0]&&0===t[1]&&0===t[2]&&1===t[3]&&0===t[4]&&0===t[5]}return this.i}},{key:"point",value:function(t,n){var r=this.m;return{x:r[0]*t+r[2]*n+r[4],y:r[1]*t+r[3]*n+r[5]}}},{key:"translateSelf",value:function(){var t=arguments.length>0&&void 0!==arguments[0]?arguments[0]:0,n=arguments.length>1&&void 0!==arguments[1]?arguments[1]:0;if(!t&&!n)return this;var r=this.m;return r[4]+=r[0]*t+r[2]*n,r[5]+=r[1]*t+r[3]*n,this.w=this.s=this.i=null,this}},{key:"rotateSelf",value:function(){var t=arguments.length>0&&void 0!==arguments[0]?arguments[0]:0;if(t%=360){var n=Y(t*=$),r=Z(t),e=this.m,i=e[0],o=e[1];e[0]=i*r+e[2]*n,e[1]=o*r+e[3]*n,e[2]=e[2]*r-i*n,e[3]=e[3]*r-o*n,this.w=this.s=this.i=null}return this}},{key:"scaleSelf",value:function(){var t=arguments.length>0&&void 0!==arguments[0]?arguments[0]:1,n=arguments.length>1&&void 0!==arguments[1]?arguments[1]:1;if(1!==t||1!==n){var r=this.m;r[0]*=t,r[1]*=t,r[2]*=n,r[3]*=n,this.w=this.s=this.i=null}return this}},{key:"skewSelf",value:function(t,n){if(n%=360,(t%=360)||n){var r=this.m,e=r[0],i=r[1],o=r[2],u=r[3];t&&(t=W(t*$),r[2]+=e*t,r[3]+=i*t),n&&(n=W(n*$),r[0]+=o*n,r[1]+=u*n),this.w=this.s=this.i=null}return this}},{key:"resetSelf",value:function(){var t=arguments.length>0&&void 0!==arguments[0]?arguments[0]:1,n=arguments.length>1&&void 0!==arguments[1]?arguments[1]:0,r=arguments.length>2&&void 0!==arguments[2]?arguments[2]:0,e=arguments.length>3&&void 0!==arguments[3]?arguments[3]:1,i=arguments.length>4&&void 0!==arguments[4]?arguments[4]:0,o=arguments.length>5&&void 0!==arguments[5]?arguments[5]:0,u=this.m;return u[0]=t,u[1]=n,u[2]=r,u[3]=e,u[4]=i,u[5]=o,this.w=this.s=this.i=null,this}},{key:"recomposeSelf",value:function(){var t=arguments.length>0&&void 0!==arguments[0]?arguments[0]:null,n=arguments.length>1&&void 0!==arguments[1]?arguments[1]:null,r=arguments.length>2&&void 0!==arguments[2]?arguments[2]:null,e=arguments.length>3&&void 0!==arguments[3]?arguments[3]:null,i=arguments.length>4&&void 0!==arguments[4]?arguments[4]:null;return this.isIdentity||this.resetSelf(),t&&(t.x||t.y)&&this.translateSelf(t.x,t.y),n&&this.rotateSelf(n),r&&(r.x&&this.skewSelf(r.x,0),r.y&&this.skewSelf(0,r.y)),!e||1===e.x&&1===e.y||this.scaleSelf(e.x,e.y),i&&(i.x||i.y)&&this.translateSelf(i.x,i.y),this}},{key:"decompose",value:function(){var t=arguments.length>0&&void 0!==arguments[0]?arguments[0]:0,n=arguments.length>1&&void 0!==arguments[1]?arguments[1]:0,r=this.m,e=r[0]*r[0]+r[1]*r[1],i=[[r[0],r[1]],[r[2],r[3]]],o=nt(e);if(0===o)return{origin:{x:s(r[4]),y:s(r[5])},translate:{x:s(t),y:s(n)},scale:{x:0,y:0},skew:{x:0,y:0},rotate:0};i[0][0]/=o,i[0][1]/=o;var u=r[0]*r[3]-r[1]*r[2]<0;u&&(o=-o);var a=i[0][0]*i[1][0]+i[0][1]*i[1][1];i[1][0]-=i[0][0]*a,i[1][1]-=i[0][1]*a;var l=nt(i[1][0]*i[1][0]+i[1][1]*i[1][1]);if(0===l)return{origin:{x:s(r[4]),y:s(r[5])},translate:{x:s(t),y:s(n)},scale:{x:s(o),y:0},skew:{x:0,y:0},rotate:0};i[1][0]/=l,i[1][1]/=l,a/=l;var f=0;return i[1][1]<0?(f=J(i[1][1])*tt,i[0][1]<0&&(f=360-f)):f=K(i[0][1])*tt,u&&(f=-f),a=X(a,nt(i[0][0]*i[0][0]+i[0][1]*i[0][1]))*tt,u&&(a=-a),{origin:{x:s(r[4]),y:s(r[5])},translate:{x:s(t),y:s(n)},scale:{x:s(o),y:s(l)},skew:{x:s(a),y:0},rotate:s(f)}}},{key:"toString",value:function(){return null===this.s&&(this.s="matrix("+this.m.map((function(t){return s(t)})).join(" ")+")"),this.s}}]),t}();Object.freeze({M:2,L:2,Z:0,H:1,V:1,C:6,Q:4,T:2,S:4,A:7});var et={},it=null;function ot(n){var r=function(){if(it)return it;if("object"!==("undefined"==typeof document?"undefined":t(document))||!document.createElementNS)return{};var n=document.createElementNS("http://www.w3.org/2000/svg","svg");return n&&n.style?(n.style.position="absolute",n.style.opacity="0.01",n.style.zIndex="-9999",n.style.left="-9999px",n.style.width="1px",n.style.height="1px",it={svg:n}):{}}().svg;if(!r)return function(t){return null};var e=document.createElementNS(r.namespaceURI,"path");e.setAttributeNS(null,"d",n),e.setAttributeNS(null,"fill","none"),e.setAttributeNS(null,"stroke","none"),r.appendChild(e);var i=e.getTotalLength();return function(t){var n=e.getPointAtLength(i*t);return{x:n.x,y:n.y}}}function ut(t){return et[t]?et[t]:et[t]=ot(t)}function at(t,n,r,e){if(!t||!e)return!1;var i=["M",t.x,t.y];if(n&&r&&(i.push("C"),i.push(n.x),i.push(n.y),i.push(r.x),i.push(r.y)),n?!r:r){var o=n||r;i.push("Q"),i.push(o.x),i.push(o.y)}return n||r||i.push("L"),i.push(e.x),i.push(e.y),i.join(" ")}function lt(t,n,r,e){var i=arguments.length>4&&void 0!==arguments[4]?arguments[4]:1,o=at(t,n,r,e),u=ut(o);try{return u(i)}catch(t){return null}}function ft(t,n,r,e){var i=1-e;return i*i*t+2*i*e*n+e*e*r}function st(t,n,r,e){return 2*(1-e)*(n-t)+2*e*(r-n)}function ct(t,n,r,e){var i=arguments.length>4&&void 0!==arguments[4]&&arguments[4],o=lt(t,n,null,r,e);return o||(o={x:ft(t.x,n.x,r.x,e),y:ft(t.y,n.y,r.y,e)}),i&&(o.a=ht(t,n,r,e)),o}function ht(t,n,r,e){return Math.atan2(st(t.y,n.y,r.y,e),st(t.x,n.x,r.x,e))}function vt(t,n,r,e,i){var o=i*i;return i*o*(e-t+3*(n-r))+3*o*(t+r-2*n)+3*i*(n-t)+t}function yt(t,n,r,e,i){var o=1-i;return 3*(o*o*(n-t)+2*o*i*(r-n)+i*i*(e-r))}function dt(t,n,r,e,i){var o=arguments.length>5&&void 0!==arguments[5]&&arguments[5],u=lt(t,n,r,e,i);return u||(u={x:vt(t.x,n.x,r.x,e.x,i),y:vt(t.y,n.y,r.y,e.y,i)}),o&&(u.a=gt(t,n,r,e,i)),u}function gt(t,n,r,e,i){return Math.atan2(yt(t.y,n.y,r.y,e.y,i),yt(t.x,n.x,r.x,e.x,i))}function pt(t,n,r){return t+(n-t)*r}function mt(t,n,r){var e=arguments.length>3&&void 0!==arguments[3]&&arguments[3],i={x:pt(t.x,n.x,r),y:pt(t.y,n.y,r)};return e&&(i.a=bt(t,n)),i}function bt(t,n){return Math.atan2(n.y-t.y,n.x-t.x)}function wt(t,n,r){var e=arguments.length>3&&void 0!==arguments[3]&&arguments[3];if(kt(n)){if(At(r))return ct(n,r.start,r,t,e)}else if(kt(r)){if(n.end)return ct(n,n.end,r,t,e)}else{if(n.end)return r.start?dt(n,n.end,r.start,r,t,e):ct(n,n.end,r,t,e);if(r.start)return ct(n,r.start,r,t,e)}return mt(n,r,t,e)}function xt(t,n,r){var e=wt(t,n,r,!0);return e.a=function(t){var n=arguments.length>1&&void 0!==arguments[1]&&arguments[1];return n?t+Math.PI:t}(e.a)/h,e}function kt(t){return!t.type||"corner"===t.type}function At(t){return null!=t.start&&!kt(t)}var _t=new rt;var St={f:Q,i:w},Ot={f:Q,i:function(t,n,r){var e=w(t,n,r);return e<=0?0:e>=1?1:e}};function Mt(t,n,r,e,i,o,u,a){return n=function(t,n,r){for(var e,i,o,u=t.length-1,a={},l=0;l<=u;l++)(e=t[l]).e&&(e.e=n(e.e)),e.v&&"g"===(i=e.v).t&&i.r&&(o=r.getElementById(i.r))&&(a[i.r]=o.querySelectorAll("stop"));return a}(t,e,a),function(e){var i,o=r(e,t,jt);return o?"c"===o.t?V(o.v):"g"===o.t?(n[o.r]&&function(t,n){for(var r=0,e=t.length;r<e;r++)t[r].setAttribute("stop-color",V(n[r]))}(n[o.r],o.v),(i=o.r)?"url(#"+i+")":"none"):"none":"none"}}function jt(t,n,r){if(0===t)return n;if(1===t)return r;if(n&&r){var e=n.t;if(e===r.t)switch(n.t){case"c":return{t:e,v:_(t,n.v,r.v)};case"g":if(n.r===r.r)return{t:e,v:S(t,n.v,r.v),r:n.r}}}return b(t,n,r)}var Pt={fill:Mt,"fill-opacity":Ot,stroke:Mt,"stroke-opacity":Ot,"stroke-width":St,"stroke-dashoffset":{f:Q,i:w},"stroke-dasharray":{f:function(t){var n=arguments.length>1&&void 0!==arguments[1]?arguments[1]:" ";return t&&t.length>0&&(t=t.map((function(t){return s(t,4)}))),U(t,n)},i:function(t,n,r){var e,i,o,u=n.length,a=r.length;if(u!==a)if(0===u)n=O(u=a,0);else if(0===a)a=u,r=O(u,0);else{var l=(o=(e=u)*(i=a)/function(t,n){for(var r;n;)r=n,n=t%n,t=r;return t||1}(e,i))<0?-o:o;n=M(n,Math.floor(l/u)),r=M(r,Math.floor(l/a)),u=a=l}for(var f=[],c=0;c<u;c++)f.push(s(x(t,n[c],r[c])));return f}},opacity:Ot,transform:function(n,r,e,i){if(!(n=function(n,r){if(!n||"object"!==t(n))return null;var e=!1;for(var i in n)n.hasOwnProperty(i)&&(n[i]&&n[i].length?(n[i].forEach((function(t){t.e&&(t.e=r(t.e))})),e=!0):delete n[i]);return e?n:null}(n,i)))return null;var o=function(t,i,o){var u=arguments.length>3&&void 0!==arguments[3]?arguments[3]:null;return n[t]?e(i,n[t],o):r&&r[t]?r[t]:u};return r&&r.a&&n.o?function(t){var r=e(t,n.o,xt);return _t.recomposeSelf(r,o("r",t,w,0)+r.a,o("k",t,k),o("s",t,k),o("t",t,k)).toString()}:function(t){return _t.recomposeSelf(o("o",t,wt,null),o("r",t,w,0),o("k",t,k),o("s",t,k),o("t",t,k)).toString()}},r:St,"#size":H,"#radius":G,_:function(t,n){if(Array.isArray(t))for(var r=0;r<t.length;r++)this[t[r]]=n;else this[t]=n}};return function(t){!function(t,n){if("function"!=typeof n&&null!==n)throw new TypeError("Super expression must either be null or a function");t.prototype=Object.create(n&&n.prototype,{constructor:{value:t,writable:!0,configurable:!0}}),n&&o(t,n)}(u,t);var r=a(u);function u(){return n(this,u),r.apply(this,arguments)}return e(u,null,[{key:"build",value:function(t){var n=l(i(u),"build",this).call(this,t,Pt);if(!n)return null;n.el,n.options;var r=n.player;return function(t,n,r){t.play()}(r),r}}]),u}(D)}));
__SVGATOR_PLAYER__.build({"root":"e1tOjKadk0n1","animations":[{"duration":3000,"direction":1,"iterations":0,"fill":1,"alternate":false,"speed":1,"elements":{"e1tOjKadk0n18":{"transform":{"data":{"t":{"x":-436.37645,"y":-286.234329}},"keys":{"o":[{"t":0,"v":{"x":436.37645,"y":286.234329,"type":"corner"}},{"t":100,"v":{"x":436.37645,"y":287.462448,"type":"corner"}},{"t":200,"v":{"x":436.37645,"y":285.462448,"type":"corner"}},{"t":300,"v":{"x":436.37645,"y":286.462448,"type":"corner"}},{"t":400,"v":{"x":436.37645,"y":286.234329,"type":"corner"}},{"t":500,"v":{"x":436.37645,"y":287.462448,"type":"corner"}},{"t":600,"v":{"x":436.37645,"y":285.462448,"type":"corner"}},{"t":700,"v":{"x":436.37645,"y":286.462448,"type":"corner"}},{"t":900,"v":{"x":436.37645,"y":286.234329,"type":"corner"}},{"t":1000,"v":{"x":436.37645,"y":287.462448,"type":"corner"}},{"t":1100,"v":{"x":436.37645,"y":285.462448,"type":"corner"}},{"t":1200,"v":{"x":436.37645,"y":286.462448,"type":"corner"}},{"t":1300,"v":{"x":436.37645,"y":286.234329,"type":"corner"}},{"t":1400,"v":{"x":436.37645,"y":287.462448,"type":"corner"}},{"t":1500,"v":{"x":436.37645,"y":285.462448,"type":"corner"}},{"t":1600,"v":{"x":436.37645,"y":286.462448,"type":"corner"}},{"t":1700,"v":{"x":436.37645,"y":286.234329,"type":"corner"}},{"t":1800,"v":{"x":436.37645,"y":287.462448,"type":"corner"}},{"t":1900,"v":{"x":436.37645,"y":285.462448,"type":"corner"}},{"t":2000,"v":{"x":436.37645,"y":286.462448,"type":"corner"}},{"t":2100,"v":{"x":436.37645,"y":286.234329,"type":"corner"}},{"t":2200,"v":{"x":436.37645,"y":287.462448,"type":"corner"}},{"t":2300,"v":{"x":436.37645,"y":285.462448,"type":"corner"}},{"t":2400,"v":{"x":436.37645,"y":286.462448,"type":"corner"}},{"t":2500,"v":{"x":436.37645,"y":286.462448,"type":"corner"}},{"t":2600,"v":{"x":436.37645,"y":286.234329,"type":"corner"}},{"t":2700,"v":{"x":436.37645,"y":287.462448,"type":"corner"}},{"t":2800,"v":{"x":436.37645,"y":285.462448,"type":"corner"}},{"t":2900,"v":{"x":436.37645,"y":286.462448,"type":"corner"}},{"t":3000,"v":{"x":436.37645,"y":286.234329,"type":"corner"}}],"r":[{"t":0,"v":0},{"t":100,"v":-2},{"t":300,"v":-1},{"t":500,"v":0},{"t":600,"v":-2},{"t":800,"v":-1},{"t":1100,"v":0},{"t":1200,"v":-2},{"t":1400,"v":-1},{"t":1600,"v":0},{"t":1700,"v":-2},{"t":1900,"v":-1}]}}},"e1tOjKadk0n53":{"transform":{"data":{"t":{"x":-445.112976,"y":-285.246964}},"keys":{"o":[{"t":0,"v":{"x":445.112976,"y":285.246964,"type":"corner"}},{"t":100,"v":{"x":445.112976,"y":284.323075,"type":"corner"}},{"t":200,"v":{"x":445.112976,"y":285.953725,"type":"corner"}},{"t":300,"v":{"x":445.112976,"y":284.953725,"type":"corner"}},{"t":500,"v":{"x":436.37645,"y":286.234329,"type":"corner"}},{"t":600,"v":{"x":436.37645,"y":287.462448,"type":"corner"}},{"t":700,"v":{"x":436.37645,"y":285.462448,"type":"corner"}},{"t":800,"v":{"x":436.37645,"y":286.462448,"type":"corner"}},{"t":1100,"v":{"x":436.37645,"y":286.234329,"type":"corner"}},{"t":1200,"v":{"x":436.37645,"y":287.462448,"type":"corner"}},{"t":1300,"v":{"x":436.37645,"y":285.462448,"type":"corner"}},{"t":1400,"v":{"x":436.37645,"y":286.462448,"type":"corner"}},{"t":1500,"v":{"x":436.37645,"y":286.234329,"type":"corner"}},{"t":1600,"v":{"x":436.37645,"y":287.462448,"type":"corner"}},{"t":1700,"v":{"x":436.37645,"y":285.462448,"type":"corner"}},{"t":1800,"v":{"x":436.37645,"y":286.462448,"type":"corner"}},{"t":1900,"v":{"x":436.37645,"y":286.462448,"type":"corner"}},{"t":2000,"v":{"x":436.37645,"y":286.234329,"type":"corner"}},{"t":2100,"v":{"x":436.37645,"y":287.462448,"type":"corner"}},{"t":2200,"v":{"x":436.37645,"y":285.462448,"type":"corner"}},{"t":2300,"v":{"x":436.37645,"y":286.462448,"type":"corner"}},{"t":2400,"v":{"x":436.37645,"y":286.234329,"type":"corner"}},{"t":2500,"v":{"x":436.37645,"y":287.462448,"type":"corner"}},{"t":2600,"v":{"x":436.37645,"y":285.462448,"type":"corner"}},{"t":2900,"v":{"x":436.37645,"y":286.462448,"type":"corner"},"e":[0.42,0,0.58,1]}],"r":[{"t":0,"v":0},{"t":100,"v":-2},{"t":300,"v":-1},{"t":500,"v":0},{"t":600,"v":-2},{"t":800,"v":-1},{"t":1100,"v":0},{"t":1200,"v":-2},{"t":1400,"v":-1},{"t":1600,"v":0},{"t":1700,"v":-2},{"t":1900,"v":-1}]}}}}}],"options":{"start":"load","hover":null,"click":null,"scroll":null,"font":"embed","exportedIds":"unique","svgFormat":"animated","title":"r"},"animationSettings":{"duration":3000,"direction":1,"iterations":0,"fill":1,"alternate":false,"speed":100}})]]></script></svg>